Coordinates
version=1
nRows=54
nColumns=12
inDegrees=yes

Units are S.I. units (second, meters, Newtons, ...)
Angles are in degrees

endheader
time	SC_y	SC_z	SC_x	AC_y	AC_z	AC_x	GH_y	GH_z	GH_yy	EL_x	PS_y
       0.0               -14.7          37.33          4.998          41.56          -9.04         -1.027          173.3         0.9957          59.64          112.9          152.0
  0.001439               -14.7          37.33           5.01          41.56         -9.042         -1.029          173.3         0.9956          59.66          112.9          152.0
  0.002879               -14.7          37.33          5.021          41.57         -9.043         -1.032          173.3         0.9955          59.68          112.9          152.0
  0.004318               -14.7          37.33          5.034          41.57         -9.045         -1.034          173.3         0.9954           59.7          112.9          152.0
  0.005757               -14.7          37.33          5.048          41.57         -9.047         -1.037          173.2         0.9952          59.71          112.8          152.0
  0.007196              -14.71          37.33          5.062          41.57         -9.048          -1.04          173.2         0.9951          59.73          112.8          152.0
  0.008636              -14.71          37.33          5.077          41.57          -9.05         -1.044          173.2         0.9949          59.76          112.8          152.0
   0.01008              -14.71          37.33          5.094          41.57         -9.052         -1.047          173.2         0.9948          59.78          112.8          152.0
   0.01151              -14.72          37.33          5.111          41.57         -9.055         -1.051          173.2         0.9946          59.81          112.8          152.0
   0.01295              -14.72          37.33           5.13          41.57         -9.057         -1.055          173.2         0.9944          59.83          112.7          152.0
   0.01439              -14.72          37.33           5.15          41.57          -9.06         -1.059          173.2         0.9942          59.86          112.7          151.9
   0.01583              -14.73          37.33          5.172          41.58         -9.062         -1.063          173.2          0.994          59.89          112.7          151.9
   0.01727              -14.73          37.33          5.196          41.58         -9.066         -1.068          173.2         0.9938          59.93          112.6          151.9
   0.01871              -14.74          37.33          5.221          41.58         -9.069         -1.074          173.2         0.9935          59.96          112.6          151.9
   0.02015              -14.74          37.33          5.248          41.58         -9.072         -1.079          173.2         0.9933           60.0          112.6          151.9
   0.02159              -14.75          37.32          5.278          41.58         -9.076         -1.086          173.2          0.993          60.04          112.5          151.9
   0.02303              -14.75          37.32          5.311          41.59          -9.08         -1.092          173.2         0.9927          60.09          112.5          151.9
   0.02447              -14.76          37.32          5.346          41.59         -9.085           -1.1          173.2         0.9923          60.14          112.4          151.9
   0.02591              -14.76          37.32          5.384          41.59          -9.09         -1.108          173.2         0.9919          60.19          112.4          151.9
   0.02735              -14.77          37.32          5.426          41.59         -9.095         -1.117          173.2         0.9915          60.25          112.3          151.9
   0.02879              -14.78          37.32          5.473           41.6         -9.101         -1.126          173.2         0.9911          60.32          112.3          151.9
   0.03023              -14.79          37.32          5.524           41.6         -9.108         -1.137          173.2         0.9906          60.39          112.2          151.9
   0.03166               -14.8          37.32           5.58           41.6         -9.115         -1.149          173.2           0.99          60.47          112.1          151.9
    0.0331              -14.81          37.32          5.642          41.61         -9.123         -1.162          173.2         0.9894          60.56          112.1          151.9
   0.03454              -14.82          37.31          5.711          41.61         -9.132         -1.176          173.2         0.9887          60.66          112.0          151.9
   0.03598              -14.84          37.31          5.789          41.62         -9.142         -1.192          173.2          0.988          60.77          111.9          151.8
   0.03742              -14.85          37.31          5.875          41.62         -9.153          -1.21          173.2         0.9871          60.89          111.8          151.8
   0.03886              -14.87          37.31          5.973          41.63         -9.165         -1.231          173.2         0.9862          61.03          111.6          151.8
    0.0403              -14.89           37.3          6.083          41.64         -9.179         -1.254          173.2         0.9851          61.19          111.5          151.8
   0.04174              -14.91           37.3          6.208          41.65         -9.195          -1.28          173.2         0.9839          61.36          111.3          151.8
   0.04318              -14.93           37.3           6.35          41.66         -9.214          -1.31          173.1         0.9825          61.57          111.1          151.8
   0.04462              -14.96          37.29          6.514          41.67         -9.235         -1.344          173.1         0.9809           61.8          110.9          151.7
   0.04606               -15.0          37.29          6.703          41.68         -9.259         -1.384          173.1          0.979          62.07          110.7          151.7
    0.0475              -15.04          37.28          6.922          41.69         -9.287         -1.429          173.1         0.9769          62.38          110.4          151.7
   0.04894              -15.08          37.28          7.179          41.71          -9.32         -1.483          173.1         0.9743          62.75          110.0          151.6
   0.05038              -15.13          37.27          7.482          41.73         -9.359         -1.547          173.1         0.9714          63.18          109.6          151.6
   0.05181               -15.2          37.26          7.842          41.76         -9.405         -1.622          173.0         0.9679          63.69          109.2          151.5
   0.05325              -15.27          37.25          8.273          41.79         -9.461         -1.712          173.0         0.9636           64.3          108.6          151.4
   0.05469              -15.37          37.24          8.795          41.82         -9.528         -1.821          173.0         0.9585          65.05          107.9          151.4
   0.05613              -15.48          37.22          9.433          41.86          -9.61         -1.955          172.9         0.9523          65.95          107.1          151.3
   0.05757              -15.62           37.2          10.22          41.92         -9.711         -2.119          172.8         0.9446          67.07          106.0          151.1
   0.05901              -15.79          37.18           11.2          41.98         -9.837         -2.324          172.8         0.9349          68.47          104.8          151.0
   0.06045              -16.01          37.15          12.44          42.07         -9.995         -2.583          172.7         0.9228          70.23          103.1          150.8
   0.06189              -16.29          37.11          14.01          42.17          -10.2         -2.912          172.5         0.9074          72.46          101.1          150.5
   0.06333              -16.64          37.06          16.02          42.31         -10.46         -3.332          172.4         0.8877          75.32          98.42          150.2
   0.06477               -17.1           37.0           18.6          42.48         -10.79         -3.872          172.2         0.8624           79.0          95.03          149.8
   0.06621              -17.68          36.92           21.9          42.71         -11.21         -4.562          171.9         0.8301          83.69           90.7          149.2
   0.06765              -18.42          36.82          26.04          42.99         -11.74         -5.429          171.6         0.7895          89.58          85.25          148.5
   0.06909              -19.31           36.7          31.09          43.33         -12.39         -6.486          171.2           0.74          96.77          78.61          147.7
   0.07053              -20.34          36.55          36.95          43.72         -13.14         -7.711          170.7         0.6827          105.1          70.92          146.8
   0.07196              -21.46           36.4          43.29          44.15         -13.96         -9.037          170.2         0.6205          114.1          62.58          145.7
    0.0734              -22.58          36.24          49.63          44.58         -14.77         -10.36          169.7         0.5584          123.1          54.25          144.7
   0.07484              -23.62           36.1          55.49          44.98         -15.52         -11.59          169.2          0.501          131.5          46.56          143.8
   0.07628              -24.51          35.98          60.54          45.32         -16.17         -12.65          168.8         0.4515          138.7          39.92          142.9
